<?xml version="1.0" standalone="no"?>
<!DOCTYPE svg PUBLIC "-//W3C//DTD SVG 20010904//EN"
 "http://www.w3.org/TR/2001/REC-SVG-20010904/DTD/svg10.dtd">
<svg version="1.0" xmlns="http://www.w3.org/2000/svg"
 width="512.000000pt" height="512.000000pt" viewBox="0 0 512.000000 512.000000"
 preserveAspectRatio="xMidYMid meet">
<metadata>
Created by potrace 1.14, written by Peter Selinger 2001-2017
</metadata>
<g transform="translate(0.000000,512.000000) scale(0.100000,-0.100000)"
fill="#000000" stroke="none">
<path d="M1870 5043 c-156 -31 -284 -154 -325 -309 -13 -50 -15 -292 -15
-1898 0 -1828 0 -1841 -21 -1909 -41 -136 -135 -246 -264 -308 -27 -13 -54
-24 -60 -26 -137 -28 -198 -27 -302 5 -148 46 -263 161 -320 319 -16 44 -18
102 -18 683 0 349 3 656 6 682 8 53 41 162 71 228 65 146 216 313 357 396 140
82 252 115 429 128 l34 2 -1 200 c0 109 0 216 0 238 l-1 39 -87 -7 c-136 -10
-309 -44 -390 -78 -16 -6 -33 -12 -39 -13 -35 -8 -215 -103 -295 -157 -114
-76 -283 -242 -362 -355 -135 -192 -222 -411 -254 -635 -5 -29 -8 -336 -8
-683 l1 -630 26 -97 c89 -326 321 -592 621 -712 134 -53 234 -73 384 -74 128
-1 272 18 333 45 8 3 20 7 25 8 26 6 125 52 180 84 287 165 478 456 520 791 3
25 5 821 5 1769 l1 1723 237 -6 c130 -4 262 -9 292 -11 260 -17 340 -25 507
-50 73 -11 100 -15 123 -20 14 -3 41 -8 60 -11 19 -3 91 -19 158 -36 476 -114
810 -322 967 -602 37 -67 78 -172 89 -227 3 -19 8 -45 11 -59 9 -41 17 -141
17 -205 0 -409 -204 -787 -544 -1011 -54 -35 -103 -64 -111 -64 -7 0 -17 -4
-22 -9 -16 -15 -184 -68 -270 -85 -155 -30 -247 -37 -507 -41 -234 -3 -255 -7
-322 -65 -57 -51 -80 -102 -80 -185 0 -110 47 -184 148 -231 l51 -24 325 4
c340 4 378 7 525 33 345 61 719 286 966 583 165 198 294 470 344 730 18 94 21
120 31 240 45 581 -140 1093 -522 1448 -223 208 -520 370 -769 421 -200 41
-257 43 -1139 45 -526 1 -756 -2 -796 -11z"/>
<path d="M2190 3273 l0 -238 388 1 c439 1 441 1 510 80 86 97 82 237 -10 324
-70 67 -53 65 -490 68 l-398 3 0 -238z"/>
</g>
</svg>
