<svg width="1000" height="260" viewBox="0 0 1000 260" fill="none" xmlns="http://www.w3.org/2000/svg">
<path d="M343.662 189.413V143.246C350.133 150.349 359.84 155.03 370.518 155.03C394.624 155.03 411.935 137.273 411.935 113.383C411.935 90.7832 393.815 72.058 369.871 72.058C345.927 72.058 327.645 89.8146 327.645 113.383V189.413H343.662ZM369.871 140.018C354.987 140.018 343.662 127.911 343.662 113.544C343.662 99.0158 354.987 87.2319 369.871 87.2319C384.593 87.2319 395.918 99.0158 395.918 113.544C395.918 127.911 384.593 140.018 369.871 140.018Z" fill="white"/>
<path d="M456.719 155.03C469.662 155.03 480.178 148.896 486.164 139.21V153.093H501.372V113.383C501.372 89.8146 483.09 72.058 459.146 72.058C435.04 72.058 416.92 90.7832 416.92 113.383C416.92 136.305 433.746 155.03 456.719 155.03ZM459.146 139.856C444.424 139.856 432.937 127.911 432.937 113.544C432.937 99.0158 444.424 87.0704 459.146 87.0704C474.03 87.0704 485.355 99.0158 485.355 113.544C485.355 127.911 474.03 139.856 459.146 139.856Z" fill="white"/>
<path d="M552.466 191.512C578.19 191.512 593.721 173.271 593.721 146.797V73.9951H577.543V113.06C577.543 127.588 568.483 139.21 554.569 139.21C540.17 139.21 532.405 129.041 532.405 114.19V73.9951H516.55V114.997C516.55 138.242 528.36 154.223 552.628 154.223C564.6 154.223 573.013 148.896 577.705 140.018V146.959C577.705 164.07 568.968 176.661 552.143 176.661C541.303 176.661 532.405 171.657 527.875 163.101L514.608 170.365C521.727 184.409 535.64 191.512 552.466 191.512Z" fill="white"/>
<path d="M635.435 155.191C643.687 155.191 649.187 150.349 651.452 140.825L664.557 88.5233C664.88 86.909 665.689 85.9405 667.145 85.9405C668.763 85.9405 669.572 86.909 670.058 88.5233L683 140.825C685.265 150.349 690.766 155.191 699.017 155.191C706.945 155.191 713.578 150.349 715.843 140.663L730.889 73.9951H716.005L701.929 137.596C701.444 139.533 700.635 140.502 699.179 140.502C697.561 140.502 696.752 139.533 696.267 137.919L683.486 86.2633C681.059 76.5779 675.72 72.058 667.307 72.058C658.894 72.058 653.394 76.7393 650.967 86.4247L638.024 137.919C637.7 139.372 636.73 140.502 635.435 140.502C633.656 140.502 633.009 139.533 632.523 137.596L617.963 73.9951H602.917L618.448 140.663C620.713 150.349 627.508 155.191 635.435 155.191Z" fill="white"/>
<path d="M774.568 155.03C798.351 155.03 816.633 136.305 816.633 113.383C816.633 90.7832 798.513 72.058 774.568 72.058C750.786 72.058 732.181 90.6218 732.181 113.383C732.181 136.305 750.624 155.03 774.568 155.03ZM774.568 139.856C759.684 139.856 748.197 127.911 748.197 113.544C748.197 99.0158 759.684 87.0704 774.568 87.0704C789.291 87.0704 800.616 99.0158 800.616 113.544C800.616 127.911 789.291 139.856 774.568 139.856Z" fill="white"/>
<path d="M865.745 87.3933C881.6 87.3933 889.689 100.146 889.689 114.997V153.093H905.706V113.06C905.706 90.1375 891.63 72.058 865.745 72.058C840.183 72.058 826.431 90.1375 826.431 113.221V153.093H842.448V114.835C842.448 100.146 850.213 87.3933 865.745 87.3933Z" fill="white"/>
<path d="M956.318 191.35C981.556 191.35 1000 173.432 1000 145.99V113.383C1000 89.8146 981.718 72.058 957.774 72.058C933.668 72.058 915.548 90.6218 915.548 113.221C915.548 136.466 933.344 154.223 955.833 154.223C969.099 154.223 978.806 148.089 983.983 139.856V146.152C983.983 164.715 972.658 176.661 955.994 176.661C944.508 176.661 935.771 171.172 931.079 162.617L917.651 169.881C924.932 183.925 939.169 191.35 956.318 191.35ZM957.612 139.21C943.213 139.21 931.403 127.588 931.403 113.06C931.403 98.5316 943.213 87.2319 957.612 87.2319C972.173 87.2319 983.821 98.5316 983.821 113.06C983.821 127.588 972.173 139.21 957.612 139.21Z" fill="white"/>
<path d="M27.4644 208.348V151.149C27.4644 125.869 47.9581 105.375 73.2383 105.375V80.6718C32.7899 80.6718 0 113.462 0 153.91V206.368C0 235.862 23.9093 259.771 53.4029 259.771C82.8966 259.771 106.806 235.862 106.806 206.368V29.721H177.614C183.265 29.721 188.904 30.5805 193.912 33.1982C206.972 40.0236 231.921 57.6872 231.921 93.0235C231.921 125.226 211.201 142.752 197.641 150.773C190.345 155.088 181.824 156.326 173.347 156.326H147.322C141.799 156.326 137.322 160.803 137.322 166.326V172.573C137.322 178.096 141.799 182.573 147.322 182.573H180.186C185.166 182.573 190.127 182.138 194.863 180.598C213.038 174.691 259.386 153.541 259.386 91.4795C259.386 26.504 208.584 6.3727 192.497 1.62682C189.313 0.687364 186.002 0.385742 182.682 0.385742H99.8823C87.6953 0.385742 77.8157 10.2653 77.8157 22.4523V208.348C77.8157 222.253 66.5442 233.524 52.64 233.524C38.7359 233.524 27.4644 222.253 27.4644 208.348Z" fill="#8548FF"/>
<path d="M111.383 105.375V80.6718H150.209C155.732 80.6718 160.209 85.1489 160.209 90.6718V95.3752C160.209 100.898 155.732 105.375 150.209 105.375H111.383Z" fill="#8548FF"/>
</svg>
