<svg width="673" height="120" viewBox="0 0 673 120" fill="none" xmlns="http://www.w3.org/2000/svg">
<path d="M16.0168 117.355V71.1881C22.4882 78.2907 32.1953 82.9721 42.8731 82.9721C66.9792 82.9721 84.2902 65.2154 84.2902 41.3246C84.2902 18.7252 66.1702 0 42.226 0C18.2818 0 0 17.7567 0 41.3246V117.355H16.0168ZM42.226 67.9596C27.3417 67.9596 16.0168 55.8528 16.0168 41.486C16.0168 26.9578 27.3417 15.1739 42.226 15.1739C56.9485 15.1739 68.2735 26.9578 68.2735 41.486C68.2735 55.8528 56.9485 67.9596 42.226 67.9596Z" fill="white"/>
<path d="M129.074 82.9721C142.017 82.9721 152.533 76.8379 158.519 67.1525V81.035H173.727V41.3246C173.727 17.7567 155.445 0 131.501 0C107.395 0 89.2752 18.7252 89.2752 41.3246C89.2752 64.2468 106.101 82.9721 129.074 82.9721ZM131.501 67.7982C116.779 67.7982 105.292 55.8528 105.292 41.486C105.292 26.9578 116.779 15.0125 131.501 15.0125C146.385 15.0125 157.71 26.9578 157.71 41.486C157.71 55.8528 146.385 67.7982 131.501 67.7982Z" fill="white"/>
<path d="M224.821 119.454C250.545 119.454 266.076 101.213 266.076 74.7394V1.93709H249.898V41.0018C249.898 55.5299 240.838 67.1525 226.924 67.1525C212.525 67.1525 204.76 56.9828 204.76 42.1317V1.93709H188.905V42.9388C188.905 66.1839 200.715 82.1649 224.983 82.1649C236.955 82.1649 245.368 76.8379 250.06 67.9596V74.9008C250.06 92.0118 241.323 104.603 224.497 104.603C213.658 104.603 204.76 99.5987 200.23 91.0433L186.963 98.3073C194.082 112.351 207.995 119.454 224.821 119.454Z" fill="white"/>
<path d="M307.79 83.1335C316.042 83.1335 321.542 78.2907 323.807 68.7667L336.912 16.4653C337.235 14.851 338.044 13.8825 339.5 13.8825C341.118 13.8825 341.927 14.851 342.413 16.4653L355.355 68.7667C357.62 78.2907 363.121 83.1335 371.372 83.1335C379.3 83.1335 385.933 78.2907 388.198 68.6053L403.244 1.93709H388.36L374.284 65.5382C373.799 67.4753 372.99 68.4439 371.534 68.4439C369.916 68.4439 369.107 67.4753 368.622 65.8611L355.841 14.2053C353.414 4.51987 348.075 0 339.662 0C331.249 0 325.749 4.6813 323.322 14.3668L310.379 65.8611C310.055 67.3139 309.085 68.4439 307.79 68.4439C306.011 68.4439 305.364 67.4753 304.878 65.5382L290.318 1.93709H275.272L290.803 68.6053C293.068 78.2907 299.863 83.1335 307.79 83.1335Z" fill="white"/>
<path d="M446.923 82.9721C470.706 82.9721 488.988 64.2468 488.988 41.3246C488.988 18.7252 470.868 0 446.923 0C423.141 0 404.536 18.5638 404.536 41.3246C404.536 64.2468 422.979 82.9721 446.923 82.9721ZM446.923 67.7982C432.039 67.7982 420.552 55.8528 420.552 41.486C420.552 26.9578 432.039 15.0125 446.923 15.0125C461.646 15.0125 472.971 26.9578 472.971 41.486C472.971 55.8528 461.646 67.7982 446.923 67.7982Z" fill="white"/>
<path d="M538.1 15.3353C553.955 15.3353 562.044 28.0878 562.044 42.9388V81.035H578.061V41.0018C578.061 18.0795 563.985 0 538.1 0C512.537 0 498.786 18.0795 498.786 41.1632V81.035H514.802V42.7774C514.802 28.0878 522.568 15.3353 538.1 15.3353Z" fill="white"/>
<path d="M628.673 119.293C653.911 119.293 672.355 101.374 672.355 73.9323V41.3246C672.355 17.7567 654.073 0 630.129 0C606.023 0 587.903 18.5638 587.903 41.1632C587.903 64.4083 605.699 82.1649 628.188 82.1649C641.454 82.1649 651.161 76.0308 656.338 67.7982V74.0937C656.338 92.6575 645.013 104.603 628.349 104.603C616.863 104.603 608.126 99.1145 603.434 90.559L590.006 97.8231C597.286 111.867 611.524 119.293 628.673 119.293ZM629.967 67.1525C615.568 67.1525 603.758 55.5299 603.758 41.0018C603.758 26.4736 615.568 15.1739 629.967 15.1739C644.528 15.1739 656.176 26.4736 656.176 41.0018C656.176 55.5299 644.528 67.1525 629.967 67.1525Z" fill="white"/>
</svg>
